<?xml version="1.0" encoding="utf-8"?>
<!-- Generator: Fusion 360, Shaper Origin Export Add-In, Version 1.5.0 -->
<svg enable-background="new 0 0 0.11 0.11" height="0.11cm" shaper:fusionaddin="version:1.5.0" version="1.1" viewBox="0 0 0.11 0.11" width="0.11cm" x="0cm" xml:space="preserve" xmlns="http://www.w3.org/2000/svg" xmlns:shaper="http://www.shapertools.com/namespaces/shaper" xmlns:xlink="http://www.w3.org/1999/xlink" y="0cm">
	<path d="M0,0 L0,0.1 0.1,0.1 0.1,0 0,0z" fill="none" shaper:cutDepth="0" shaper:pathType="guide" stroke="rgb(100,100,100)" transform="matrix(1,0,0,-1,0.005,0.105)" vector-effect="non-scaling-stroke" />
	<path d="M0.095,0 a0.005,0.005 0 1,1 0.01,0 a0.005,0.005 0 1,1 -0.01,0z" fill="none" shaper:cutDepth="0" shaper:pathType="guide" stroke="rgb(100,100,100)" transform="matrix(1,0,0,-1,0.005,0.105)" vector-effect="non-scaling-stroke" />
	<path d="M-0.005,0.1 a0.005,0.005 0 1,1 0.01,0 a0.005,0.005 0 1,1 -0.01,0z" fill="none" shaper:cutDepth="0" shaper:pathType="guide" stroke="rgb(100,100,100)" transform="matrix(1,0,0,-1,0.005,0.105)" vector-effect="non-scaling-stroke" />
</svg>
