<?xml version="1.0" encoding="utf-8"?>
<!-- Generator: Fusion 360, Shaper Origin Export Add-In, Version 1.5.0 -->
<svg enable-background="new 0 0 0.1009 0.1009" height="0.1009cm" shaper:fusionaddin="version:1.5.0" version="1.1" viewBox="0 0 0.1009 0.1009" width="0.1009cm" x="0cm" xml:space="preserve" xmlns="http://www.w3.org/2000/svg" xmlns:shaper="http://www.shapertools.com/namespaces/shaper" xmlns:xlink="http://www.w3.org/1999/xlink" y="0cm">
	<path d="M0,0 L0,0.1 0.1,0.1 0.1,0 0,0z" fill="none" shaper:cutDepth="0" shaper:pathType="guide" stroke="rgb(100,100,100)" transform="matrix(1,0,0,-1,0.00045,0.10045)" vector-effect="non-scaling-stroke" />
	<path d="M0.09955,0 a0.00045,0.00045 0 1,1 0.0009,0 a0.00045,0.00045 0 1,1 -0.0009,0z" fill="none" shaper:cutDepth="0" shaper:pathType="guide" stroke="rgb(100,100,100)" transform="matrix(1,0,0,-1,0.00045,0.10045)" vector-effect="non-scaling-stroke" />
	<path d="M-0.00045,0.1 a0.00045,0.00045 0 1,1 0.0009,0 a0.00045,0.00045 0 1,1 -0.0009,0z" fill="none" shaper:cutDepth="0" shaper:pathType="guide" stroke="rgb(100,100,100)" transform="matrix(1,0,0,-1,0.00045,0.10045)" vector-effect="non-scaling-stroke" />
</svg>
