<?xml version="1.0" encoding="utf-8"?>
<!-- Generator: Fusion 360, Shaper Origin Export Add-In, Version 1.5.0  -->
<svg enable-background="new 0 0 0.1550001 0.2782051" height="0.2782051cm" shaper:fusionaddin="version:1.5.0" version="1.1" viewBox="0 0 0.1550001 0.2782051" width="0.1550001cm" x="0cm" xml:space="preserve" xmlns="http://www.w3.org/2000/svg" xmlns:shaper="http://www.shapertools.com/namespaces/shaper" xmlns:xlink="http://www.w3.org/1999/xlink" y="0cm"><path d="M0,0 L-0.05,0.0866025 0.05,0.0866025 0,0z" fill="none" shaper:cutDepth="0" shaper:pathType="guide" stroke="rgb(100,100,100)" transform="matrix(1,0,0,-1,0.0500001,0.2732051)" vector-effect="non-scaling-stroke" /><path d="M0.05,0.0866025 L0.05,0.1866025 -0.0500001,0.1866025 -0.05,0.0866025" fill="none" shaper:cutDepth="0" shaper:pathType="guide" stroke="rgb(100,100,100)" transform="matrix(1,0,0,-1,0.0500001,0.2732051)" vector-effect="non-scaling-stroke" /><path d="M-0.0500001,0.1866025 L-0,0.2732051 0.05,0.1866025" fill="none" shaper:cutDepth="0" shaper:pathType="guide" stroke="rgb(100,100,100)" transform="matrix(1,0,0,-1,0.0500001,0.2732051)" vector-effect="non-scaling-stroke" /><path d="M0.045,0.1866025 a0.005,0.005 0 1,1 0.01,0 a0.005,0.005 0 1,1 -0.01,0z" fill="none" shaper:cutDepth="0" shaper:pathType="guide" stroke="rgb(100,100,100)" transform="matrix(1,0,0,-1,0.0500001,0.2732051)" vector-effect="non-scaling-stroke" /><path d="M0.095,0 a0.005,0.005 0 1,1 0.01,0 a0.005,0.005 0 1,1 -0.01,0z" fill="none" shaper:cutDepth="0" shaper:pathType="guide" stroke="rgb(100,100,100)" transform="matrix(1,0,0,-1,0.0500001,0.2732051)" vector-effect="non-scaling-stroke" /></svg>