<?xml version="1.0" encoding="utf-8"?>
<!-- Generator: Fusion 360, Shaper Origin Export Add-In, Version 1.5.0  -->
<svg enable-background="new 0 0 0.3695751 0.2695751" height="0.2695751cm" shaper:fusionaddin="version:1.5.0" version="1.1" viewBox="0 0 0.3695751 0.2695751" width="0.3695751cm" x="0cm" xml:space="preserve" xmlns="http://www.w3.org/2000/svg" xmlns:shaper="http://www.shapertools.com/namespaces/shaper" xmlns:xlink="http://www.w3.org/1999/xlink" y="0cm"><path d="M0,0 L0,0.1 0.0911438,0.1411438 0.1322876,0.05 0.0911438,-0.0411438 0,0z" fill="none" shaper:cutDepth="0" shaper:pathType="guide" stroke="rgb(100,100,100)" transform="matrix(1,0,0,-1,-0,0.1872876)" vector-effect="non-scaling-stroke" /><path d="M0.1322876,0.05 L0.2322876,0.05 0.2734313,-0.0411438 0.1822876,-0.0822876 0.0911438,-0.0411438" fill="none" shaper:cutDepth="0" shaper:pathType="guide" stroke="rgb(100,100,100)" transform="matrix(1,0,0,-1,-0,0.1872876)" vector-effect="non-scaling-stroke" /><path d="M0.0911438,0.1411438 L0.1822876,0.1822876 0.2734313,0.1411438 0.2322876,0.05" fill="none" shaper:cutDepth="0" shaper:pathType="guide" stroke="rgb(100,100,100)" transform="matrix(1,0,0,-1,-0,0.1872876)" vector-effect="non-scaling-stroke" /><path d="M0.2734313,0.1411438 L0.3645751,0.1 0.3645751,0 0.2734313,-0.0411438" fill="none" shaper:cutDepth="0" shaper:pathType="guide" stroke="rgb(100,100,100)" transform="matrix(1,0,0,-1,-0,0.1872876)" vector-effect="non-scaling-stroke" /><path d="M0.3595751,0 a0.005,0.005 0 1,1 0.01,0 a0.005,0.005 0 1,1 -0.01,0z" fill="none" shaper:cutDepth="0" shaper:pathType="guide" stroke="rgb(100,100,100)" transform="matrix(1,0,0,-1,-0,0.1872876)" vector-effect="non-scaling-stroke" /><path d="M0.1772876,0.1822876 a0.005,0.005 0 1,1 0.01,0 a0.005,0.005 0 1,1 -0.01,0z" fill="none" shaper:cutDepth="0" shaper:pathType="guide" stroke="rgb(100,100,100)" transform="matrix(1,0,0,-1,-0,0.1872876)" vector-effect="non-scaling-stroke" /></svg>