<?xml version="1.0" encoding="utf-8"?>
<!-- Generator: Fusion 360, Shaper Origin Export Add-In, Version 1.5.0  -->
<svg enable-background="new 0 0 0.8292432 0.7638156" height="0.7638156cm" shaper:fusionaddin="version:1.5.0" version="1.1" viewBox="0 0 0.8292432 0.7638156" width="0.8292432cm" x="0cm" xml:space="preserve" xmlns="http://www.w3.org/2000/svg" xmlns:shaper="http://www.shapertools.com/namespaces/shaper" xmlns:xlink="http://www.w3.org/1999/xlink" y="0cm"><path d="M-0.2493621,0.0439693 L-0.1627595,0.0939693 -0.1285575,0.1879385 -0.1627595,0.2819078 -0.2493621,0.3319078 -0.3478429,0.314543 -0.4121216,0.2379385 -0.4121216,0.1379385 -0.3478429,0.0613341 -0.2493621,0.0439693 -0.2835641,-0.05 -0.2493621,-0.1439693 -0.1627595,-0.1939693 -0.0642788,-0.1766044 -0,-0.1 0.0642788,-0.1766044 0.1627595,-0.1939693 0.2493621,-0.1439693 0.2835641,-0.05 0.2493621,0.0439693 0.3478429,0.0613341 0.4121216,0.1379385 0.4121216,0.2379385 0.3478429,0.314543 0.2493621,0.3319078 0.2835641,0.425877 0.2493621,0.5198463 0.1627595,0.5698463 0.0642788,0.5524815 -0,0.475877 -0.0642788,0.5524815 -0.1627595,0.5698463 -0.2493621,0.5198463 -0.2835641,0.425877 -0.2493621,0.3319078" fill="none" shaper:cutDepth="0" shaper:pathType="guide" stroke="rgb(100,100,100)" transform="matrix(1,0,0,-1,0.4121216,0.5698463)" vector-effect="non-scaling-stroke" /><path d="M-0,-0.1 L-0,-0 -0.0642788,0.0766044 -0.1627595,0.0939693" fill="none" shaper:cutDepth="0" shaper:pathType="guide" stroke="rgb(100,100,100)" transform="matrix(1,0,0,-1,0.4121216,0.5698463)" vector-effect="non-scaling-stroke" /><path d="M0.2493621,0.0439693 L0.1627595,0.0939693 0.0642788,0.0766044 -0,-0" fill="none" shaper:cutDepth="0" shaper:pathType="guide" stroke="rgb(100,100,100)" transform="matrix(1,0,0,-1,0.4121216,0.5698463)" vector-effect="non-scaling-stroke" /><path d="M0.2493621,0.3319078 L0.1627595,0.2819078 0.1285575,0.1879385 0.1627595,0.0939693" fill="none" shaper:cutDepth="0" shaper:pathType="guide" stroke="rgb(100,100,100)" transform="matrix(1,0,0,-1,0.4121216,0.5698463)" vector-effect="non-scaling-stroke" /><path d="M-0,0.475877 L0,0.375877 0.0642788,0.2992726 0.1627595,0.2819078" fill="none" shaper:cutDepth="0" shaper:pathType="guide" stroke="rgb(100,100,100)" transform="matrix(1,0,0,-1,0.4121216,0.5698463)" vector-effect="non-scaling-stroke" /><path d="M-0.1627595,0.2819078 L-0.0642788,0.2992726 0,0.375877" fill="none" shaper:cutDepth="0" shaper:pathType="guide" stroke="rgb(100,100,100)" transform="matrix(1,0,0,-1,0.4121216,0.5698463)" vector-effect="non-scaling-stroke" /><path d="M0.4071216,0.2379385 a0.005,0.005 0 1,1 0.01,0 a0.005,0.005 0 1,1 -0.01,0z" fill="none" shaper:cutDepth="0" shaper:pathType="guide" stroke="rgb(100,100,100)" transform="matrix(1,0,0,-1,0.4121216,0.5698463)" vector-effect="non-scaling-stroke" /><path d="M-0.005,0.475877 a0.005,0.005 0 1,1 0.01,0 a0.005,0.005 0 1,1 -0.01,0z" fill="none" shaper:cutDepth="0" shaper:pathType="guide" stroke="rgb(100,100,100)" transform="matrix(1,0,0,-1,0.4121216,0.5698463)" vector-effect="non-scaling-stroke" /></svg>