<?xml version="1.0" encoding="utf-8"?>
<!-- Generator: Fusion 360, Shaper Origin Export Add-In, Version 1.5.0 -->
<svg enable-background="new 0 0 0.7196152 0.6732051" height="0.6732051cm" shaper:fusionaddin="version:1.5.0" version="1.1" viewBox="0 0 0.7196152 0.6732051" width="0.7196152cm" x="0cm" xml:space="preserve" xmlns="http://www.w3.org/2000/svg" xmlns:shaper="http://www.shapertools.com/namespaces/shaper" xmlns:xlink="http://www.w3.org/1999/xlink" y="0cm">
	<path d="M-0.2232051,0.2866025 L-0.1366025,0.2366025 -0.05,0.2866025 -0.05,0.3866025 -0.1366025,0.4366025 -0.2232051,0.3866025 -0.2232051,0.2866025z" fill="none" shaper:cutDepth="0" shaper:pathType="guide" stroke="rgb(100,100,100)" transform="matrix(1,0,0,-1,0.2232051,0.6732051)" vector-effect="non-scaling-stroke" />
	<path d="M-0.1366025,0.2366025 L-0.0866025,0.15 -0.0866025,0.05 0,0 0.0866025,0.05 0.1866025,0.05 0.2732051,0 0.3598076,0.05 0.3598076,0.15 0.4098076,0.2366025 0.4964102,0.2866025 0.4964102,0.3866025 0.4098076,0.4366025 0.3598076,0.5232051 0.3598076,0.6232051 0.2732051,0.6732051 0.1866025,0.6232051 0.0866025,0.6232051 0,0.6732051 -0.0866025,0.6232051 -0.0866025,0.5232051 -0.1366025,0.4366025" fill="none" shaper:cutDepth="0" shaper:pathType="guide" stroke="rgb(100,100,100)" transform="matrix(1,0,0,-1,0.2232051,0.6732051)" vector-effect="non-scaling-stroke" />
	<path d="M-0.0866025,0.15 L-0,0.2 -0.05,0.2866025" fill="none" shaper:cutDepth="0" shaper:pathType="guide" stroke="rgb(100,100,100)" transform="matrix(1,0,0,-1,0.2232051,0.6732051)" vector-effect="non-scaling-stroke" />
	<path d="M0.1866025,0.05 L0.1866025,0.15 0.0866025,0.15 -0,0.2" fill="none" shaper:cutDepth="0" shaper:pathType="guide" stroke="rgb(100,100,100)" transform="matrix(1,0,0,-1,0.2232051,0.6732051)" vector-effect="non-scaling-stroke" />
	<path d="M0.0866025,0.05 L0.0866025,0.15" fill="none" shaper:cutDepth="0" shaper:pathType="guide" stroke="rgb(100,100,100)" transform="matrix(1,0,0,-1,0.2232051,0.6732051)" vector-effect="non-scaling-stroke" />
	<path d="M0.4098076,0.2366025 L0.3232051,0.2866025 0.2732051,0.2 0.1866025,0.15" fill="none" shaper:cutDepth="0" shaper:pathType="guide" stroke="rgb(100,100,100)" transform="matrix(1,0,0,-1,0.2232051,0.6732051)" vector-effect="non-scaling-stroke" />
	<path d="M0.3598076,0.15 L0.2732051,0.2" fill="none" shaper:cutDepth="0" shaper:pathType="guide" stroke="rgb(100,100,100)" transform="matrix(1,0,0,-1,0.2232051,0.6732051)" vector-effect="non-scaling-stroke" />
	<path d="M0.3598076,0.5232051 L0.2732051,0.4732051 0.3232051,0.3866025 0.3232051,0.2866025" fill="none" shaper:cutDepth="0" shaper:pathType="guide" stroke="rgb(100,100,100)" transform="matrix(1,0,0,-1,0.2232051,0.6732051)" vector-effect="non-scaling-stroke" />
	<path d="M0.4098076,0.4366025 L0.3232051,0.3866025" fill="none" shaper:cutDepth="0" shaper:pathType="guide" stroke="rgb(100,100,100)" transform="matrix(1,0,0,-1,0.2232051,0.6732051)" vector-effect="non-scaling-stroke" />
	<path d="M0.0866025,0.6232051 L0.0866025,0.5232051 0.1866025,0.5232051 0.2732051,0.4732051" fill="none" shaper:cutDepth="0" shaper:pathType="guide" stroke="rgb(100,100,100)" transform="matrix(1,0,0,-1,0.2232051,0.6732051)" vector-effect="non-scaling-stroke" />
	<path d="M0.1866025,0.6232051 L0.1866025,0.5232051" fill="none" shaper:cutDepth="0" shaper:pathType="guide" stroke="rgb(100,100,100)" transform="matrix(1,0,0,-1,0.2232051,0.6732051)" vector-effect="non-scaling-stroke" />
	<path d="M-0.05,0.3866025 L0,0.4732051 0.0866025,0.5232051" fill="none" shaper:cutDepth="0" shaper:pathType="guide" stroke="rgb(100,100,100)" transform="matrix(1,0,0,-1,0.2232051,0.6732051)" vector-effect="non-scaling-stroke" />
	<path d="M-0.0866025,0.5232051 L0,0.4732051" fill="none" shaper:cutDepth="0" shaper:pathType="guide" stroke="rgb(100,100,100)" transform="matrix(1,0,0,-1,0.2232051,0.6732051)" vector-effect="non-scaling-stroke" />
	<path d="M0.4093576,0.2366025 a0.00045,0.00045 0 1,1 0.0009,0 a0.00045,0.00045 0 1,1 -0.0009,0z" fill="none" shaper:cutDepth="0" shaper:pathType="guide" stroke="rgb(100,100,100)" transform="matrix(1,0,0,-1,0.2232051,0.6732051)" vector-effect="non-scaling-stroke" />
	<path d="M-0.00045,0.4732051 a0.00045,0.00045 0 1,1 0.0009,0 a0.00045,0.00045 0 1,1 -0.0009,0z" fill="none" shaper:cutDepth="0" shaper:pathType="guide" stroke="rgb(100,100,100)" transform="matrix(1,0,0,-1,0.2232051,0.6732051)" vector-effect="non-scaling-stroke" />
</svg>
