<?xml version="1.0" encoding="utf-8"?>
<!-- Generator: Fusion 360, Shaper Origin Export Add-In, Version 1.5.0  -->
<svg enable-background="new 0 0 0.4282051 0.4282051" height="0.4282051cm" shaper:fusionaddin="version:1.5.0" version="1.1" viewBox="0 0 0.4282051 0.4282051" width="0.4282051cm" x="0cm" xml:space="preserve" xmlns="http://www.w3.org/2000/svg" xmlns:shaper="http://www.shapertools.com/namespaces/shaper" xmlns:xlink="http://www.w3.org/1999/xlink" y="0cm"><path d="M0.1366025,0 L0.2366025,0 0.3232051,0.05 0.3732051,0.1366025 0.3732051,0.2366025 0.3232051,0.3232051 0.2366025,0.3732051 0.1366025,0.3732051 0.05,0.3232051 0,0.2366025 0,0.1366025 0.05,0.05 0.1366025,0z" fill="none" shaper:cutDepth="0" shaper:pathType="guide" stroke="rgb(100,100,100)" transform="matrix(1,0,0,-1,0.005,0.4232051)" vector-effect="non-scaling-stroke" /><path d="M0.3732051,0.2366025 L0.4232051,0.3232051 0.3232051,0.3232051 0.3232051,0.4232051 0.2366025,0.3732051" fill="none" shaper:cutDepth="0" shaper:pathType="guide" stroke="rgb(100,100,100)" transform="matrix(1,0,0,-1,0.005,0.4232051)" vector-effect="non-scaling-stroke" /><path d="M0.4232051,0.3232051 L0.4232051,0.4232051 0.3232051,0.4232051" fill="none" shaper:cutDepth="0" shaper:pathType="guide" stroke="rgb(100,100,100)" transform="matrix(1,0,0,-1,0.005,0.4232051)" vector-effect="non-scaling-stroke" /><path d="M0.3682051,0 a0.005,0.005 0 1,1 0.01,0 a0.005,0.005 0 1,1 -0.01,0z" fill="none" shaper:cutDepth="0" shaper:pathType="guide" stroke="rgb(100,100,100)" transform="matrix(1,0,0,-1,0.005,0.4232051)" vector-effect="non-scaling-stroke" /><path d="M-0.005,0.3732051 a0.005,0.005 0 1,1 0.01,0 a0.005,0.005 0 1,1 -0.01,0z" fill="none" shaper:cutDepth="0" shaper:pathType="guide" stroke="rgb(100,100,100)" transform="matrix(1,0,0,-1,0.005,0.4232051)" vector-effect="non-scaling-stroke" /></svg>